<svg width="64" height="51" viewBox="0 0 64 51" fill="none" xmlns="http://www.w3.org/2000/svg">
<path fill-rule="evenodd" clip-rule="evenodd" d="M46.7143 0.863525C41.0997 0.863525 35.0042 3.35462 31.9887 8.33724C28.9734 3.35462 22.8777 0.863525 17.2631 0.863525C7.43969 0.863525 0.083374 6.98376 0.083374 17.2518C0.083374 21.6805 1.87264 27.4324 5.91222 32.2073C9.95152 36.9824 12.3544 39.5253 20.1775 44.6635C28.0005 49.8019 31.9887 50.6883 31.9887 50.6883C31.9887 50.6883 35.9769 49.8019 43.7999 44.6635C51.6229 39.5253 54.0259 36.9824 58.0652 32.2073C62.1048 27.4324 63.8941 21.6805 63.8941 17.2518C63.8941 6.98376 56.5377 0.863525 46.7143 0.863525ZM56.3211 30.7498C52.4965 35.2709 50.3132 37.6708 42.5436 42.7739C36.8124 46.5385 33.2494 47.9122 31.9889 48.3272C30.7284 47.9121 27.1655 46.5382 21.4342 42.7739C13.6647 37.6708 11.4815 35.271 7.65667 30.7497C5.93819 28.7183 4.54347 26.3229 3.62349 23.8219C2.79879 21.5795 2.36266 19.3075 2.36266 17.2516C2.36266 12.9649 3.80566 9.37543 6.53556 6.87117C7.83742 5.67693 9.40676 4.74909 11.2006 4.11326C13.0444 3.45945 15.0842 3.12808 17.2634 3.12808C22.6785 3.12808 27.6921 5.63093 30.0361 9.50424L31.989 12.7312L33.942 9.50424C36.2862 5.63093 41.2997 3.12808 46.7146 3.12808C48.8939 3.12808 50.9337 3.45945 52.7775 4.11311C54.5713 4.74909 56.1407 5.67693 57.4425 6.87103C60.1724 9.37543 61.6154 12.9649 61.6154 17.2516C61.6154 19.3075 61.1793 21.5795 60.3543 23.8219C59.4345 26.3228 58.0398 28.7183 56.3211 30.7498Z" fill="#6C301E"/>
</svg>
