<svg width="125" height="116" viewBox="0 0 125 116" fill="none" xmlns="http://www.w3.org/2000/svg">
<path fill-rule="evenodd" clip-rule="evenodd" d="M44.1431 27.7904H50.424C51.3285 27.7904 52.0822 27.1624 52.4842 26.2202C52.6852 25.7806 52.7854 25.3409 52.7854 24.8384V24.2731V21.9492V7.12623V4.99072V4.1742C52.7854 3.67172 52.6852 3.23206 52.5844 2.7924C52.1322 1.34779 50.9768 0.280029 49.6701 0.280029H44.1429C42.9369 0.280029 41.932 1.41059 41.8315 2.8552C41.8315 2.98082 41.7812 3.10644 41.7812 3.23206V4.99072V7.12623V22.2004V24.5872V24.8384C41.7812 25.4665 41.9322 26.0318 42.1835 26.5343C42.6357 27.288 43.3392 27.7904 44.1431 27.7904Z" fill="#6C301E"/>
<path fill-rule="evenodd" clip-rule="evenodd" d="M23.6998 25.7444L23.238 27.1958H19.4774V35.442H23.5672H29.3729H31.8134H63.6109H65.9858H75.0233V35.0462V27.1958H71.329L70.8675 25.7444C68.8225 18.9495 63.4126 12.0227 56.5521 8.5263V24.0292V26.2062V26.4701C56.4861 27.1958 56.3542 27.8555 56.0243 28.5151C55.1664 30.1644 53.4515 31.3519 51.4724 31.3519H50.4169H43.1602C41.3127 31.3519 39.6635 30.3623 38.8062 28.911C38.4104 28.3172 38.2125 27.6575 38.0805 26.9319C38.0146 26.668 38.0146 26.4701 38.0146 26.2062V24.3591V8.46033C31.154 11.9567 25.7448 18.9495 23.6998 25.7444Z" stroke="#607D8B" stroke-width="2.75104"/>
<path fill-rule="evenodd" clip-rule="evenodd" d="M91.4834 91.6973C86.7996 91.6973 83.0063 87.9041 83.0063 83.2206C83.0063 78.5364 86.7996 74.7431 91.4834 74.7431C96.1673 74.7431 99.9605 78.5364 99.9605 83.2206C99.9605 87.9041 96.1673 91.6973 91.4834 91.6973Z" fill="#6C301E" stroke="#6C301E" stroke-width="2.75104"/>
<path fill-rule="evenodd" clip-rule="evenodd" d="M122.852 85.958V80.4664L111.423 78.4048C110.912 76.2773 110.07 74.2982 108.966 72.484L115.612 62.9844L111.72 59.0921L102.187 65.7221C100.373 64.6171 98.3776 63.776 96.2666 63.2812L94.238 51.8688H88.7463L86.6848 63.298C84.5573 63.8093 82.5782 64.6504 80.764 65.7551L71.2644 59.109L67.3721 63.0012L74.0021 72.5338C72.8971 74.348 72.056 76.3436 71.5612 78.4543L60.1484 80.4828V85.9748L71.5777 88.0364C72.089 90.1636 72.9301 92.1427 74.0348 93.9569L67.3721 103.457L71.2644 107.349L80.7967 100.719C82.6108 101.824 84.6067 102.665 86.7174 103.16L88.746 114.572H94.2377L96.2992 103.143C98.4268 102.632 100.406 101.791 102.22 100.686L111.72 107.333L115.612 103.44L108.982 93.9077C110.087 92.0935 110.928 90.0979 111.423 87.9869L122.852 85.958Z" stroke="#607D8B" stroke-width="2.75104"/>
<path fill-rule="evenodd" clip-rule="evenodd" d="M27.064 51.9014C27.6903 57.2944 29.9501 62.0934 33.2486 65.6066C33.9413 66.3488 34.667 67.025 35.4418 67.6352C36.4313 68.4265 37.4704 69.1027 38.5754 69.6799C41.0657 70.9663 43.8038 71.7085 46.7226 71.7085C49.6415 71.7085 52.3795 70.9663 54.8699 69.6799C55.9749 69.1027 57.0139 68.4265 58.0035 67.6352C58.7786 67.0085 59.5208 66.332 60.2135 65.5898C63.4951 62.0772 65.7549 57.3274 66.3813 51.9674C66.4473 51.9674 66.4971 51.9839 66.563 51.9839C69.9931 51.9839 72.7807 48.7843 72.7807 44.8426C72.7807 42.4512 71.7582 40.3567 70.1914 39.0538H24.3097C22.7429 40.3567 21.7204 42.4512 21.7204 44.8426C21.7204 48.471 24.0458 51.4231 27.064 51.9014Z" stroke="#607D8B" stroke-width="2.75104"/>
<path fill-rule="evenodd" clip-rule="evenodd" d="M83.567 107.151C82.9898 106.788 81.1921 106.326 80.6973 105.947L70.5545 112.61L62.3083 104.364L69.4 93.0666C69.1361 92.5883 69.1859 92.5058 68.9547 91.9946L55.8924 89.6688L55.9418 76.9534L65.4742 75.3042L60.7247 70.6695C56.7665 73.9023 51.9177 75.8151 46.7391 75.8151H46.7226H46.7061C41.8075 75.8151 37.2229 74.1003 33.3963 71.1973L28.5644 75.8151H19.1142C14.7602 75.8151 11.3462 77.2995 8.69096 80.3839C0.923019 89.3558 2.22559 108.685 2.83614 114.606H84.9851L83.567 107.151Z" stroke="#607D8B" stroke-width="2.75104"/>
</svg>
