<svg width="58" height="53" viewBox="0 0 58 53" fill="none" xmlns="http://www.w3.org/2000/svg">
<path fill-rule="evenodd" clip-rule="evenodd" d="M50.586 9.34672V7.17136H46.1981V9.34672H39.6162V5.28151V4.99599C39.5477 2.52152 37.7514 0.645264 35.2009 0.645264H21.6121C19.0616 0.645264 17.6767 2.50792 17.6767 4.99599V5.28151V9.34672H11.0948V7.17136H6.70687V9.34672H0.125V52.854H57.1679V9.34672H50.586ZM19.8705 9.27882V5.28159C19.8705 3.8948 20.2682 2.82071 21.7491 2.82071H35.0637C36.4898 2.82071 37.4222 3.8676 37.4222 5.28159V9.27882V9.3468H19.8705V9.27882ZM54.974 50.6787H2.319V20.2236H54.974V50.6787ZM54.974 18.0484H2.319V11.5223H6.70691V13.6976H11.0948V11.5223H46.1981V13.6976H50.5861V11.5223H54.974V18.0484Z" fill="#6C301E"/>
</svg>
