<svg width="116" height="115" viewBox="0 0 116 115" fill="none" xmlns="http://www.w3.org/2000/svg">
<g id="Group 7">
<path id="Stroke 1" fill-rule="evenodd" clip-rule="evenodd" d="M4.43063 95.7488C0.344656 99.8887 0.344656 106.593 4.43063 110.733C6.47362 112.803 9.15104 113.834 11.8287 113.834C14.5063 113.834 17.1838 112.803 19.2268 110.733L53.5672 75.9324L38.771 60.9553L4.43063 95.7488Z" fill="#6C301E"/>
<path id="Stroke 3" fill-rule="evenodd" clip-rule="evenodd" d="M90.9087 31.0567L106.002 23.2554L113.903 7.98392L106.537 0.619019L91.2674 8.52562L83.45 23.6002L65.0921 41.9738L72.5367 49.4304L90.9087 31.0567Z" stroke="#607D8B" stroke-width="2.75104"/>
<path id="Stroke 5" fill-rule="evenodd" clip-rule="evenodd" d="M94.3349 71.0953L92.9226 70.9549C90.3638 70.9549 87.9378 71.4822 85.6727 72.3262L42.6277 29.0138C43.4667 26.7348 43.991 24.2941 43.991 21.7198L43.8512 20.2992C43.1102 9.31949 34.1195 0.619019 23.0175 0.619019C19.7874 0.619019 16.7602 1.41401 14.0267 2.72935L27.9602 16.7472C28.6943 17.4855 29.1977 18.3575 29.5332 19.2791C30.449 21.7691 29.9527 24.6811 27.9602 26.6924C26.5969 28.0642 24.8072 28.7535 23.0175 28.7535C22.1926 28.7535 21.3745 28.5707 20.5915 28.275C19.6757 27.9233 18.8087 27.431 18.0746 26.6857L4.14135 12.6746C2.83392 15.4247 2.04395 18.4702 2.04395 21.7198C2.04395 32.8893 10.692 41.9342 21.6054 42.6799L23.0177 42.8204C25.5765 42.8204 28.0025 42.2929 30.2676 41.456L73.3054 84.7617C72.4805 87.0405 71.9561 89.4814 71.9561 92.0557L72.1029 93.4763C72.8301 104.463 81.8277 113.156 92.9297 113.156C96.1597 113.156 99.1938 112.376 101.92 111.046L87.987 97.0283C87.2598 96.2967 86.7495 95.4177 86.3999 94.5033C85.4842 92.0136 85.9804 89.0946 87.987 87.0833C89.3363 85.7115 91.14 85.0222 92.9297 85.0222C93.7549 85.0222 94.5655 85.1981 95.3626 85.5007C96.2784 85.8452 97.1523 86.3376 97.8724 87.0833L111.806 101.101C113.12 98.3439 113.903 95.3055 113.903 92.0559C113.896 80.886 105.248 71.841 94.3349 71.0953Z" stroke="#607D8B" stroke-width="2.75104"/>
</g>
</svg>
