<svg width="84" height="54" viewBox="0 0 84 54" fill="none" xmlns="http://www.w3.org/2000/svg">
<path fill-rule="evenodd" clip-rule="evenodd" d="M59.0985 41.2993C56.593 40.4315 53.8832 40.3761 51.3777 39.5083C50.6167 39.2498 49.1134 38.9359 48.7979 38.0681C48.5009 37.2188 48.5009 36.2218 48.4453 35.3355C48.4081 34.6339 48.3896 33.9323 48.3896 33.2306C48.3896 32.7691 49.5774 31.7905 49.8372 31.3658C50.8395 29.7041 50.9323 27.47 51.1179 25.5867C52.7325 26.0298 52.9367 23.0571 53.2151 22.1524C53.4192 21.5246 54.6627 17.2041 52.7325 17.795C53.1965 16.9826 53.3821 15.9855 53.512 15.0808C53.8832 12.7174 54.0317 10.1325 53.3079 7.82454C51.8046 3.02397 47.1832 0.328265 42.302 0.180555C37.3466 0.014381 32.3726 2.37774 30.5166 7.15985C29.6258 9.48628 29.7 12.0158 29.997 14.453C30.1269 15.5608 30.3125 16.7979 30.8693 17.795C29.069 17.2595 30.0341 21.063 30.2382 21.7277C30.5352 22.6694 30.795 26.0483 32.484 25.5867C32.6324 27.0822 32.7995 28.6147 33.2078 30.0733C33.4862 31.0519 34.0615 31.8828 34.7297 32.6398C35.0637 33.0091 35.2308 33.046 35.2122 33.5261C35.1937 34.9662 35.2308 36.5172 34.8596 37.9204C34.4884 39.3237 31.3889 39.9145 30.1454 40.173C26.8047 40.8562 23.7238 41.1701 20.9399 43.238C17.6919 45.6198 16.003 49.331 16.003 53.3377C31.4632 53.3377 46.9234 53.3377 62.3836 53.3377C64.1282 53.3377 65.8542 53.3377 67.5988 53.3377C67.5988 47.8909 64.2952 43.0903 59.0985 41.2993C61.1957 42.0194 57.0198 40.5792 59.0985 41.2993ZM21.589 46.6169C22.6284 45.5275 23.9461 44.5674 25.3752 44.0319C27.324 43.2934 29.5326 43.3303 31.5556 42.8133C33.2259 42.3887 35.3046 41.724 36.6038 40.5238C37.7916 39.416 37.9215 37.7173 38.0329 36.1848C38.1257 34.8924 38.1071 33.6184 38.1071 32.3259C38.1071 31.4212 37.0492 30.9042 36.5296 30.1841C35.6944 29.0578 35.6572 27.3776 35.4902 26.0298C35.416 25.4389 35.3974 24.6819 34.8963 24.2757C34.3395 23.8326 33.9312 23.5926 33.6528 22.8909C33.2816 21.9308 33.1517 20.8969 32.8547 19.8998C32.6691 19.2536 33.3187 18.6443 33.5786 18.1088C34.0611 17.1303 33.2259 15.6162 33.0589 14.6007C32.5392 11.5727 32.5578 8.26767 34.7478 5.86738C39.1465 1.02988 49.2244 2.56237 50.672 9.35703C51.1174 11.4804 50.839 13.9545 50.2451 16.0224C49.9853 16.9087 49.6883 17.5549 50.208 18.4227C50.9875 19.6783 50.6535 20.4907 50.2823 21.8939C49.9853 23.0571 49.6141 23.5741 48.7232 24.2942C47.9809 24.885 48.0922 26.3621 47.9623 27.2115C47.8138 28.2454 47.721 29.3348 47.09 30.2026C46.8487 30.5349 45.531 31.5689 45.531 31.9197C45.531 33.9507 45.4382 36.0187 45.7908 38.0312C46.2734 40.8931 48.6861 41.5763 51.0989 42.5548C53.5488 43.4965 56.3884 43.1457 58.764 44.3089C61.2139 45.509 63.571 47.7062 64.2762 50.4204C49.5584 50.4204 34.8406 50.4204 20.1228 50.4204C19.863 50.4204 19.6031 50.4204 19.3433 50.4204C19.6959 48.8879 20.5497 47.7247 21.589 46.6169C23.2965 44.8259 20.494 47.7801 21.589 46.6169Z" fill="#6C301E"/>
<path fill-rule="evenodd" clip-rule="evenodd" d="M21.0331 38.9359C22.3322 38.2897 23.7428 38.142 25.1719 37.9943C25.6915 37.9389 25.9328 37.5881 25.5431 37.0895C24.8007 36.1479 22.2394 35.9633 21.163 35.5386C20.4948 35.2801 20.3092 35.0401 20.2536 34.3015C20.235 33.9692 20.0494 32.4921 20.3092 32.252C20.4948 32.0674 21.6641 32.1413 21.9239 32.1043C22.9818 31.9751 24.0583 31.7535 25.0605 31.3658C25.4874 31.1996 25.8957 30.9965 26.2669 30.738C26.7123 30.4057 25.9328 29.5933 25.7287 29.1501C25.0976 27.7654 24.8192 26.2513 24.7264 24.7373C24.5408 21.7646 25.0048 18.7735 24.448 15.8193C23.6129 11.2957 20.1051 9.02466 15.6322 9.02466C12.8668 9.02466 10.1386 9.96631 8.5981 12.3666C6.89061 15.0069 6.98341 18.2935 7.07621 21.303C7.13189 23.0202 7.20613 24.7558 6.96485 26.4729C6.8535 27.2114 6.68646 27.9315 6.42662 28.6331C6.22247 29.1686 5.18313 30.498 5.59144 30.7749C7.13189 31.8643 9.73024 32.2336 11.5862 32.0859C11.6419 32.9906 11.8089 34.1538 11.4748 35.0031C10.9552 36.3325 7.07621 36.6833 5.90695 37.0711C2.64045 38.1604 0.227699 40.8746 0.227699 44.475C3.62412 44.475 7.00197 44.475 10.3984 44.475C11.9203 44.475 13.4422 44.475 14.9826 44.475C15.2239 44.475 16.1519 42.7579 16.4117 42.481C17.7109 41.0408 19.307 39.8037 21.0331 38.9359C22.7034 38.105 18.3234 40.3022 21.0331 38.9359ZM13.3677 41.5208C10.3425 41.5208 7.31729 41.5208 4.29206 41.5208C5.6098 39.3421 8.91342 39.4898 11.0849 38.7143C13.0893 37.9943 14.37 36.7757 14.5741 34.6523C14.5927 34.4123 14.6112 29.2609 14.4071 29.2609C12.7924 29.2055 11.1035 29.2424 9.48877 29.0024C10.7694 24.885 9.54445 20.6383 10.2312 16.484C10.7323 13.4744 12.6625 11.8127 15.7434 11.8127C18.6944 11.8127 20.8844 13.179 21.5154 16.1332C22.4063 20.4168 21.1442 24.7927 22.5176 29.0393C21.4969 29.2978 20.4204 29.3348 19.3625 29.3717C18.8428 29.3902 18.3046 29.4086 17.7849 29.4271C17.4509 29.4456 17.5622 30.0179 17.5437 30.2949C17.3581 32.3074 16.6157 35.4832 18.2304 37.108C16.4486 38.2158 14.5184 39.7483 13.3677 41.5208Z" fill="#6C301E"/>
<path fill-rule="evenodd" clip-rule="evenodd" d="M68.4899 44.4751C73.4453 44.4751 78.4193 44.4751 83.3747 44.4751C83.3747 40.8747 80.9434 38.142 77.6769 37.0711C76.1736 36.5911 73.2783 36.4434 72.2018 35.1509C71.6636 34.5047 71.9605 32.8614 72.0162 32.0859C72.8328 32.1598 73.7237 32.0305 74.5589 31.9197C75.3198 31.809 76.0622 31.6612 76.786 31.4028C77.1201 31.2735 77.4542 31.1443 77.7697 30.9596C78.4935 30.535 78.1594 30.4611 77.7882 29.8333C75.7652 26.4545 76.6747 22.1709 76.5819 18.4597C76.5076 15.3762 75.691 11.9974 72.8699 10.2618C70.3273 8.69236 66.5597 8.63697 63.8314 9.74479C55.9621 12.8836 60.602 23.2602 57.9109 29.2056C57.4469 30.2026 56.7787 30.5534 57.948 31.1443C58.5976 31.4766 59.3028 31.6982 60.0081 31.8643C61.0846 32.1228 62.1981 32.2706 63.3117 32.3075C63.4973 32.3075 63.3674 34.6339 63.3117 34.8739C63.1076 35.7787 61.1217 36.0372 60.3793 36.2403C59.6183 36.4434 58.3563 36.4987 57.9851 37.2927C57.4283 38.4744 59.8225 38.1789 60.4164 38.2897C62.3281 38.6405 64.017 39.693 65.5018 40.8931C66.5968 41.7794 68.0815 43.0349 68.4899 44.4751ZM68.4158 39.4714C67.4692 38.6036 66.4856 37.7543 65.3905 37.0711C67.0238 35.4463 66.2628 32.289 66.0772 30.258C65.9659 29.0948 65.706 29.3902 64.5368 29.3533C63.4232 29.3163 62.1612 29.3717 61.1033 29.0209C62.4396 24.9035 61.3445 20.6753 62.0312 16.484C62.5509 13.3268 64.7224 11.7758 67.8775 11.7758C70.7357 11.7758 72.703 13.1975 73.2969 16.0225C74.2064 20.2876 72.8144 24.7004 74.1321 28.9471C72.5546 29.1871 70.9213 29.1317 69.3252 29.1871C68.9354 29.2056 68.9725 33.8215 69.0097 34.2277C69.1396 36.388 70.1418 37.6989 72.2019 38.5298C74.4476 39.4345 77.9554 39.1945 79.3288 41.4655C77.6028 41.4655 75.8953 41.4655 74.1693 41.4655C73.1299 41.4655 72.0906 41.4655 71.0327 41.4655C69.7149 41.484 69.3809 40.3392 68.4158 39.4714C69.1581 40.1361 67.4878 38.6221 68.4158 39.4714Z" fill="#6C301E"/>
</svg>
